<?xml version="1.0" encoding="utf-8"?>
<!-- Generator: Adobe Illustrator 18.1.1, SVG Export Plug-In . SVG Version: 6.00 Build 0)  -->
<svg version="1.1" id="Layer_1" xmlns="http://www.w3.org/2000/svg" xmlns:xlink="http://www.w3.org/1999/xlink" x="0px" y="0px"
	 viewBox="0 0 236.2 164.8" style="enable-background:new 0 0 236.2 164.8;" xml:space="preserve">
<style type="text/css">
	.st0{fill:none;stroke:#000000;stroke-width:3.4157;stroke-miterlimit:10;}
	.st1{fill:#FFFFFF;}
	.st2{fill:#B2B2B2;}
</style>
<g id="XMLID_650_">
	<path id="XMLID_958_" d="M150.4,53.4c0,20.3-16.4,47.1-36.7,47.1S76.9,73.7,76.9,53.4s16.4-36.7,36.7-36.7S150.4,33.1,150.4,53.4z"
		/>
	<circle id="XMLID_957_" cx="148.7" cy="42.5" r="7.4"/>
	<circle id="XMLID_956_" cx="78.9" cy="42.5" r="7.4"/>
	<g id="XMLID_923_">
		<path id="XMLID_940_" d="M71.4,109.4c-5,0.1-9.1-3.8-9.2-8.8c-0.1-5,4-1.5,8.9-1.6c5-0.1,8.9-3.7,9,1.2
			C80.3,105.2,76.4,109.3,71.4,109.4z"/>
		<path id="XMLID_939_" d="M71.2,98c-5,0.1-9-2-9.1-4.6c-0.1-2.6,1.6-27.1,8.4-27.3c7-0.1,9.5,24.2,9.5,26.9
			C80.1,95.7,76.2,97.9,71.2,98z"/>
		
			<ellipse id="XMLID_926_" transform="matrix(0.7211 0.6929 -0.6929 0.7211 92.2073 -15.2358)" cx="65" cy="106.9" rx="2.4" ry="4.5"/>
		
			<ellipse id="XMLID_925_" transform="matrix(0.9998 -1.994951e-002 1.994951e-002 0.9998 -2.1591 1.4471)" cx="71.5" cy="108.9" rx="2.4" ry="4.5"/>
		
			<ellipse id="XMLID_924_" transform="matrix(0.6929 -0.7211 0.7211 0.6929 -52.4945 88.7198)" cx="77.9" cy="106" rx="2.4" ry="4.5"/>
	</g>
	<path id="XMLID_922_" class="st0" d="M71,74.8c0,0-0.1-15.2,4.5-31.1"/>
	<g id="XMLID_916_">
		<path id="XMLID_921_" d="M156.1,109.4c5,0.1,9.1-3.8,9.2-8.8c0.1-5-4-1.5-8.9-1.6c-5-0.1-8.9-3.7-9,1.2
			C147.2,105.2,151.2,109.3,156.1,109.4z"/>
		<path id="XMLID_920_" d="M156.3,98c5,0.1,9-2,9.1-4.6c0.1-2.6-1.6-27.1-8.4-27.3c-7-0.1-9.5,24.2-9.5,26.9
			C147.4,95.7,151.4,97.9,156.3,98z"/>
		
			<ellipse id="XMLID_919_" transform="matrix(-0.7211 0.6929 -0.6929 -0.7211 353.756 71.3952)" cx="162.5" cy="106.9" rx="2.4" ry="4.5"/>
		
			<ellipse id="XMLID_918_" transform="matrix(-0.9998 -1.994946e-002 1.994946e-002 -0.9998 309.956 220.9786)" cx="156.1" cy="108.9" rx="2.4" ry="4.5"/>
		
			<ellipse id="XMLID_917_" transform="matrix(-0.6929 -0.7211 0.7211 -0.6929 176.8953 287.3094)" cx="149.6" cy="106" rx="2.4" ry="4.5"/>
	</g>
	<path id="XMLID_915_" class="st0" d="M156.6,74.8c0,0,0.1-15.2-4.5-31.1"/>
	<g id="XMLID_660_">
		<circle id="XMLID_914_" cx="113.8" cy="36.9" r="26.2"/>
		<circle id="XMLID_834_" class="st1" cx="113.8" cy="36.9" r="20.6"/>
		<path id="XMLID_661_" d="M113.8,24.1c-7,0-12.7,5.7-12.7,12.7c0,2.5,0.8,4.9,2,6.9l0,0c0,0.1,0.1,0.1,0.2,0.1
			c0.1,0,0.2-0.1,0.2-0.2l0,0c0.1-3.4,2.9-6.1,6.3-6.1c3.5,0,6.4,2.9,6.4,6.4c0,2.2-1.2,4.2-2.9,5.3l0,0c-0.1,0-0.1,0.1-0.1,0.2
			c0,0.1,0.1,0.2,0.2,0.2l0,0l0,0l0,0l0,0c0.1,0,0.3,0,0.4,0c7,0,12.7-5.7,12.7-12.7C126.5,29.8,120.8,24.1,113.8,24.1z"/>
	</g>
	<g id="XMLID_655_">
		<circle id="XMLID_659_" class="st1" cx="101.5" cy="79.3" r="2.9"/>
		<circle id="XMLID_658_" class="st1" cx="109.6" cy="79.3" r="2.9"/>
		<circle id="XMLID_657_" class="st1" cx="117.6" cy="79.3" r="2.9"/>
		<circle id="XMLID_656_" class="st1" cx="125.7" cy="79.3" r="2.9"/>
	</g>
	<ellipse id="XMLID_653_" class="st2" cx="113.6" cy="107.6" rx="14.8" ry="1.2"/>
	<g id="XMLID_1_">
		<path id="XMLID_2_" d="M28.4,152.3v-35.3h11.3v4.5h-6.8v9.7h4.8v4.5h-4.8v16.5H28.4z"/>
		<path id="XMLID_4_" d="M42,123.6h4.5v28.7H42V123.6z"/>
		<path id="XMLID_6_" d="M55.3,123.6l4.3,13.5v-13.5h4.5v28.7h-4.7l-5.2-16.4v16.4h-4.5v-28.7H55.3z"/>
		<path id="XMLID_8_" d="M67.5,123.6H72v28.7h-4.5V123.6z"/>
		<path id="XMLID_10_" d="M77.8,128.1h-4v-4.5h12.6v4.5h-4v24.2h-4.5V128.1z"/>
		<path id="XMLID_12_" d="M99.8,152.3H88.1v-28.7h11.3v4.5h-6.8v7.3h4.8v4.5h-4.8v7.8h7.2V152.3z"/>
		<path id="XMLID_14_" d="M118.1,152.3v-19l-3.7,11.5h-3.7l-3.4-11.5v19h-4.7v-35.3h4.5l5.4,17.6l5.6-17.6h4.5v35.3H118.1z"/>
		<path id="XMLID_16_" d="M134.8,147.4h-4.7l-0.6,4.9h-4.8l3.7-28.7h8.1l3.6,28.7h-4.7L134.8,147.4z M130.7,142.9h3.6l-1.8-14.8
			L130.7,142.9z"/>
		<path id="XMLID_19_" d="M150.4,132.2v-4h-3.8v19.6h3.8v-4.1h4.5v5.6c0,1.6-1.4,3-3,3h-6.8c-1.6,0-3-1.4-3-3v-22.7c0-1.6,1.4-3,3-3
			h6.8c1.7,0,3,1.4,3,3v5.5H150.4z"/>
		<path id="XMLID_21_" d="M158.2,123.6h4.5v12.2h3.8v-12.2h4.5v28.7h-4.5v-11.9h-3.8v11.9h-4.5V123.6z"/>
		<path id="XMLID_23_" d="M174.4,123.6h4.5v28.7h-4.5V123.6z"/>
		<path id="XMLID_25_" d="M187.8,123.6l4.3,13.5v-13.5h4.5v28.7h-4.7l-5.2-16.4v16.4h-4.5v-28.7H187.8z"/>
		<path id="XMLID_27_" d="M211.6,152.3h-11.7v-28.7h11.3v4.5h-6.8v7.3h4.8v4.5h-4.8v7.8h7.2V152.3z"/>
	</g>
</g>
</svg>
